{
  "accessors": [
    {
      "bufferView": 2,
      "componentType": 5126,
      "count": 30766,
      "max": [
        1.6439000368118286,
        1.7343499660491943,
        8.5513896942138672
      ],
      "min": [
        -1.6439000368118286,
        -2.2770700454711914,
        0
      ],
      "type": "VEC3"
    },
    {
      "bufferView": 2,
      "byteOffset": 369192,
      "componentType": 5126,
      "count": 30766,
      "max": [
        1,
        1,
        1
      ],
      "min": [
        -1,
        -1,
        -1
      ],
      "type": "VEC3"
    },
    {
      "bufferView": 3,
      "componentType": 5126,
      "count": 30766,
      "max": [
        1,
        1,
        1,
        1
      ],
      "min": [
        -1,
        -1,
        -1,
        -1
      ],
      "type": "VEC4"
    },
    {
      "bufferView": 1,
      "componentType": 5126,
      "count": 30766,
      "max": [
        20.5,
        20.5
      ],
      "min": [
        -19.5,
        -19.5
      ],
      "type": "VEC2"
    },
    {
      "bufferView": 0,
      "componentType": 5125,
      "count": 76920,
      "max": [
        30765
      ],
      "min": [
        0
      ],
      "type": "SCALAR"
    },
    {
      "bufferView": 2,
      "byteOffset": 738384,
      "componentType": 5126,
      "count": 316,
      "max": [
        1.2466599941253662,
        1.0357300043106079,
        7.7953200340270996
      ],
      "min": [
        -1.3611299991607666,
        -2.9460699558258057,
        5.9688701629638672
      ],
      "type": "VEC3"
    },
    {
      "bufferView": 2,
      "byteOffset": 742176,
      "componentType": 5126,
      "count": 316,
      "max": [
        0.0021698970813304186,
        0.98540413379669189,
        0.26301088929176331
      ],
      "min": [
        -0.002170023275539279,
        -1,
        0
      ],
      "type": "VEC3"
    },
    {
      "bufferView": 3,
      "byteOffset": 492256,
      "componentType": 5126,
      "count": 316,
      "max": [
        0.25933545827865601,
        0.26301091909408569,
        0.992290198802948,
        1
      ],
      "min": [
        -0.13516616821289062,
        -0.26301091909408569,
        -1,
        1
      ],
      "type": "VEC4"
    },
    {
      "bufferView": 0,
      "byteOffset": 307680,
      "componentType": 5125,
      "count": 828,
      "max": [
        315
      ],
      "min": [
        0
      ],
      "type": "SCALAR"
    },
    {
      "bufferView": 2,
      "byteOffset": 745968,
      "componentType": 5126,
      "count": 9071,
      "max": [
        1.4674500226974487,
        0.50876998901367188,
        8.245610237121582
      ],
      "min": [
        -1.405460000038147,
        -3.1843700408935547,
        5.7459502220153809
      ],
      "type": "VEC3"
    },
    {
      "bufferView": 2,
      "byteOffset": 854820,
      "componentType": 5126,
      "count": 9071,
      "max": [
        1,
        1,
        1
      ],
      "min": [
        -1,
        -1,
        -1
      ],
      "type": "VEC3"
    },
    {
      "bufferView": 3,
      "byteOffset": 497312,
      "componentType": 5126,
      "count": 9071,
      "max": [
        1,
        1,
        1,
        1
      ],
      "min": [
        -1,
        -1,
        -1,
        -1
      ],
      "type": "VEC4"
    },
    {
      "bufferView": 1,
      "byteOffset": 246128,
      "componentType": 5126,
      "count": 9071,
      "max": [
        20.444009780883789,
        20.472709655761719
      ],
      "min": [
        -19.5,
        -19.5
      ],
      "type": "VEC2"
    },
    {
      "bufferView": 0,
      "byteOffset": 310992,
      "componentType": 5125,
      "count": 24486,
      "max": [
        9070
      ],
      "min": [
        0
      ],
      "type": "SCALAR"
    },
    {
      "bufferView": 4,
      "componentType": 5126,
      "count": 1,
      "max": [
        1,
        0,
        0,
        0,
        0,
        1,
        0,
        0,
        0,
        0,
        1,
        0,
        0,
        0,
        0,
        1
      ],
      "min": [
        1,
        0,
        0,
        0,
        0,
        1,
        0,
        0,
        0,
        0,
        1,
        0,
        0,
        0,
        0,
        1
      ],
      "type": "MAT4"
    }
  ],
  "asset": {
    "extras": {
      "author": "Daniel (https://sketchfab.com/DanielAndersson)",
      "license": "CC-BY-4.0 (http://creativecommons.org/licenses/by/4.0/)",
      "source": "https://sketchfab.com/models/28597dc7d8dd4df09948c24456979002",
      "title": "Star Wars: AT-ST"
    },
    "generator": "Sketchfab-3.19.6",
    "version": "2.0"
  },
  "bufferViews": [
    {
      "buffer": 0,
      "byteLength": 408936,
      "byteOffset": 0,
      "name": "floatBufferViews",
      "target": 34963
    },
    {
      "buffer": 0,
      "byteLength": 318696,
      "byteOffset": 408936,
      "byteStride": 8,
      "name": "floatBufferViews",
      "target": 34962
    },
    {
      "buffer": 0,
      "byteLength": 963672,
      "byteOffset": 727632,
      "byteStride": 12,
      "name": "floatBufferViews",
      "target": 34962
    },
    {
      "buffer": 0,
      "byteLength": 642448,
      "byteOffset": 1691304,
      "byteStride": 16,
      "name": "floatBufferViews",
      "target": 34962
    },
    {
      "buffer": 0,
      "byteLength": 64,
      "byteOffset": 2333752,
      "byteStride": 64,
      "name": "floatBufferViews"
    }
  ],
  "buffers": [
    {
      "byteLength": 2333816,
      "uri": "scene.bin"
    }
  ],
  "images": [
    {
      "uri": "textures/ScratchedMetal_baseColor.jpeg"
    },
    {
      "uri": "textures/ScratchedMetal_metallicRoughness.png"
    },
    {
      "uri": "textures/ScratchedMetalDark_baseColor.jpeg"
    }
  ],
  "materials": [
    {
      "doubleSided": true,
      "name": "ScratchedMetal",
      "pbrMetallicRoughness": {
        "baseColorFactor": [
          1,
          1,
          1,
          1
        ],
        "baseColorTexture": {
          "index": 0,
          "texCoord": 0
        },
        "metallicFactor": 1,
        "metallicRoughnessTexture": {
          "index": 1,
          "texCoord": 0
        },
        "roughnessFactor": 0.59999999999999998
      }
    },
    {
      "doubleSided": true,
      "name": "Dark",
      "pbrMetallicRoughness": {
        "baseColorFactor": [
          0,
          0,
          0,
          1
        ],
        "metallicFactor": 0,
        "roughnessFactor": 0
      }
    },
    {
      "doubleSided": true,
      "name": "ScratchedMetalDark",
      "pbrMetallicRoughness": {
        "baseColorFactor": [
          0.10000000000000001,
          0.10000000000000001,
          0.10000000000000001,
          1
        ],
        "baseColorTexture": {
          "index": 2,
          "texCoord": 0
        },
        "metallicFactor": 1,
        "roughnessFactor": 0.59999999999999998
      }
    }
  ],
  "meshes": [
    {
      "name": "AT-ST_0",
      "primitives": [
        {
          "attributes": {
            "NORMAL": 1,
            "POSITION": 0,
            "TANGENT": 2,
            "TEXCOORD_0": 3
          },
          "indices": 4,
          "material": 0,
          "mode": 4
        }
      ]
    },
    {
      "name": "AT-ST_1",
      "primitives": [
        {
          "attributes": {
            "NORMAL": 6,
            "POSITION": 5,
            "TANGENT": 7
          },
          "indices": 8,
          "material": 1,
          "mode": 4
        }
      ]
    },
    {
      "name": "AT-ST_2",
      "primitives": [
        {
          "attributes": {
            "NORMAL": 10,
            "POSITION": 9,
            "TANGENT": 11,
            "TEXCOORD_0": 12
          },
          "indices": 13,
          "material": 2,
          "mode": 4
        }
      ]
    }
  ],
  "nodes": [
    {
      "children": [
        1
      ],
      "name": "RootNode (gltf orientation matrix)",
      "rotation": [
        -0.70710678118654746,
        -0,
        -0,
        0.70710678118654757
      ]
    },
    {
      "children": [
        2
      ],
      "matrix": [
        -0.24138571321964264,
        -0.97007787227630615,
        0.026111718267202377,
        0,
        0.96313738822937012,
        -0.23619282245635986,
        0.12876079976558685,
        0,
        -0.11874060332775116,
        0.05623018741607666,
        0.99133187532424927,
        0,
        0.85841912031173706,
        -0.65063184499740601,
        -0.12874013185501099,
        1
      ],
      "name": "RootNode (model correction matrix)"
    },
    {
      "children": [
        3
      ],
      "name": "Root"
    },
    {
      "children": [
        4,
        5
      ],
      "matrix": [
        1,
        0,
        0,
        0,
        0,
        1,
        0,
        0,
        0,
        0,
        1,
        0,
        0,
        -0.50390000000000001,
        5.6054299999999992,
        1
      ],
      "name": "Rigged AT-ST"
    },
    {
      "name": "Rigged AT-ST_rootJoint"
    },
    {
      "children": [
        6,
        7,
        8
      ],
      "matrix": [
        1,
        0,
        0,
        0,
        0,
        1,
        0,
        0,
        0,
        0,
        1,
        0,
        -0,
        0.50390000000000001,
        -5.6054299999999992,
        1
      ],
      "name": "AT-ST"
    },
    {
      "mesh": 0,
      "name": "AT-ST_0"
    },
    {
      "mesh": 1,
      "name": "AT-ST_1"
    },
    {
      "mesh": 2,
      "name": "AT-ST_2"
    }
  ],
  "samplers": [
    {
      "magFilter": 9729,
      "minFilter": 9987,
      "wrapS": 10497,
      "wrapT": 10497
    }
  ],
  "scene": 0,
  "scenes": [
    {
      "name": "OSG_Scene",
      "nodes": [
        0
      ]
    }
  ],
  "skins": [
    {
      "inverseBindMatrices": 14,
      "joints": [
        4
      ],
      "skeleton": 4
    }
  ],
  "textures": [
    {
      "sampler": 0,
      "source": 0
    },
    {
      "sampler": 0,
      "source": 1
    },
    {
      "sampler": 0,
      "source": 2
    }
  ]
}

